<svg xmlns="http://www.w3.org/2000/svg" version="1.1" xmlns:xlink="http://www.w3.org/1999/xlink" xmlns:svgjs="http://svgjs.dev/svgjs" width="1000" height="1000" viewBox="0 0 1000 1000"><rect width="1000" height="1000" fill="#000000"></rect><g transform="matrix(0.7,0,0,0.7,149.5757714847614,341.3005413298566)"><svg viewBox="0 0 396 180" data-background-color="#ffffff" preserveAspectRatio="xMidYMid meet" height="454" width="1000" xmlns="http://www.w3.org/2000/svg" xmlns:xlink="http://www.w3.org/1999/xlink"><g id="tight-bounds" transform="matrix(1,0,0,1,0.23999213147783394,-0.1135853976531962)"><svg viewBox="0 0 395.52 180.2271707953064" height="180.2271707953064" width="395.52"><g><svg viewBox="0 0 395.52 180.2271707953064" height="180.2271707953064" width="395.52"><g><svg viewBox="0 0 395.52 180.2271707953064" height="180.2271707953064" width="395.52"><g id="textblocktransform"><svg viewBox="0 0 395.52 180.2271707953064" height="180.2271707953064" width="395.52" id="textblock"><g><svg viewBox="0 0 395.52 180.2271707953064" height="180.2271707953064" width="395.52"><g transform="matrix(1,0,0,1,0,0)"><svg width="395.52" viewBox="0 -34.95000076293945 76.69999694824219 34.95000076293945" height="180.2271707953064" data-palette-color="#ee3e38"><path d="M44.3-2.15L49.15-2.15 49.15 0 38.4 0 38.4-27.3 26.2-3.05 22.9-3.05 10.75-27.3 10.75 0 0 0 0-2.15 4.85-2.15 4.85-34.95 14.05-34.95 24.6-13 35.15-34.95 44.3-34.95 44.3-2.15ZM67-2.15L76.7-2.15 76.7 0 49.15 0 49.15-2.15 54.65-2.15Q52.45-3.15 50.7-5L50.7-5 54.05-9.65Q57.45-6.4 60.7-6.4L60.7-6.4Q63-6.4 64.62-7.95 66.25-9.5 66.25-12.6L66.25-12.6 66.25-29.65 55.15-29.65 55.15-34.95 72.15-34.95 72.15-12.9Q72.15-5.1 67-2.15L67-2.15Z" opacity="1" transform="matrix(1,0,0,1,0,0)" fill="#ffffff" class="wordmark-text-0" data-fill-palette-color="primary" id="text-0"></path></svg></g></svg></g></svg></g></svg></g></svg></g><defs></defs></svg><rect width="395.52" height="180.2271707953064" fill="none" stroke="none" visibility="hidden"></rect></g></svg></g></svg>